<svg width="266" height="21" viewBox="0 0 266 21" fill="none" xmlns="http://www.w3.org/2000/svg">
<path d="M118.045 10.346C118.556 10.4413 118.977 10.697 119.306 11.113C119.635 11.529 119.8 12.0057 119.8 12.543C119.8 13.0283 119.679 13.4573 119.436 13.83C119.202 14.194 118.86 14.48 118.409 14.688C117.958 14.896 117.425 15 116.81 15H112.897V5.926H116.641C117.256 5.926 117.785 6.02567 118.227 6.225C118.678 6.42433 119.016 6.70167 119.241 7.057C119.475 7.41233 119.592 7.81533 119.592 8.266C119.592 8.79467 119.449 9.23667 119.163 9.592C118.886 9.94733 118.513 10.1987 118.045 10.346ZM114.717 9.67H116.381C116.814 9.67 117.148 9.57467 117.382 9.384C117.616 9.18467 117.733 8.903 117.733 8.539C117.733 8.175 117.616 7.89333 117.382 7.694C117.148 7.49467 116.814 7.395 116.381 7.395H114.717V9.67ZM116.55 13.518C116.992 13.518 117.334 13.414 117.577 13.206C117.828 12.998 117.954 12.7033 117.954 12.322C117.954 11.932 117.824 11.6287 117.564 11.412C117.304 11.1867 116.953 11.074 116.511 11.074H114.717V13.518H116.55ZM125.931 15L123.929 11.464H123.071V15H121.251V5.926H124.657C125.359 5.926 125.957 6.05167 126.451 6.303C126.945 6.54567 127.313 6.87933 127.556 7.304C127.807 7.72 127.933 8.188 127.933 8.708C127.933 9.306 127.759 9.84767 127.413 10.333C127.066 10.8097 126.55 11.139 125.866 11.321L128.037 15H125.931ZM123.071 10.099H124.592C125.086 10.099 125.454 9.982 125.697 9.748C125.939 9.50533 126.061 9.17167 126.061 8.747C126.061 8.331 125.939 8.01033 125.697 7.785C125.454 7.551 125.086 7.434 124.592 7.434H123.071V10.099ZM135.143 13.271H131.529L130.931 15H129.02L132.283 5.913H134.402L137.665 15H135.741L135.143 13.271ZM134.649 11.815L133.336 8.019L132.023 11.815H134.649ZM146.645 15H144.825L140.704 8.773V15H138.884V5.913H140.704L144.825 12.153V5.913H146.645V15ZM148.002 10.45C148.002 9.55733 148.201 8.76 148.6 8.058C149.007 7.34733 149.558 6.797 150.251 6.407C150.953 6.00833 151.737 5.809 152.604 5.809C153.618 5.809 154.506 6.069 155.269 6.589C156.032 7.109 156.565 7.82833 156.868 8.747H154.775C154.567 8.31367 154.272 7.98867 153.891 7.772C153.518 7.55533 153.085 7.447 152.591 7.447C152.062 7.447 151.59 7.57267 151.174 7.824C150.767 8.06667 150.446 8.41333 150.212 8.864C149.987 9.31467 149.874 9.84333 149.874 10.45C149.874 11.048 149.987 11.5767 150.212 12.036C150.446 12.4867 150.767 12.8377 151.174 13.089C151.59 13.3317 152.062 13.453 152.591 13.453C153.085 13.453 153.518 13.3447 153.891 13.128C154.272 12.9027 154.567 12.5733 154.775 12.14H156.868C156.565 13.0673 156.032 13.791 155.269 14.311C154.515 14.8223 153.627 15.078 152.604 15.078C151.737 15.078 150.953 14.883 150.251 14.493C149.558 14.0943 149.007 13.544 148.6 12.842C148.201 12.14 148.002 11.3427 148.002 10.45ZM165.949 5.926V15H164.129V11.139H160.242V15H158.422V5.926H160.242V9.657H164.129V5.926H165.949ZM176.402 13.271H172.788L172.19 15H170.279L173.542 5.913H175.661L178.924 15H177L176.402 13.271ZM175.908 11.815L174.595 8.019L173.282 11.815H175.908ZM181.938 5.926V11.542C181.938 12.1573 182.098 12.6297 182.419 12.959C182.74 13.2797 183.19 13.44 183.771 13.44C184.36 13.44 184.815 13.2797 185.136 12.959C185.457 12.6297 185.617 12.1573 185.617 11.542V5.926H187.45V11.529C187.45 12.3003 187.281 12.9547 186.943 13.492C186.614 14.0207 186.167 14.4193 185.604 14.688C185.049 14.9567 184.43 15.091 183.745 15.091C183.069 15.091 182.454 14.9567 181.899 14.688C181.353 14.4193 180.92 14.0207 180.599 13.492C180.278 12.9547 180.118 12.3003 180.118 11.529V5.926H181.938ZM195.384 5.926V7.395H192.966V15H191.146V7.395H188.728V5.926H195.384ZM200.923 15.091C200.074 15.091 199.294 14.8917 198.583 14.493C197.873 14.0943 197.309 13.544 196.893 12.842C196.477 12.1313 196.269 11.3297 196.269 10.437C196.269 9.553 196.477 8.76 196.893 8.058C197.309 7.34733 197.873 6.79267 198.583 6.394C199.294 5.99533 200.074 5.796 200.923 5.796C201.781 5.796 202.561 5.99533 203.263 6.394C203.974 6.79267 204.533 7.34733 204.94 8.058C205.356 8.76 205.564 9.553 205.564 10.437C205.564 11.3297 205.356 12.1313 204.94 12.842C204.533 13.544 203.974 14.0943 203.263 14.493C202.553 14.8917 201.773 15.091 200.923 15.091ZM200.923 13.466C201.469 13.466 201.95 13.3447 202.366 13.102C202.782 12.8507 203.107 12.4953 203.341 12.036C203.575 11.5767 203.692 11.0437 203.692 10.437C203.692 9.83033 203.575 9.30167 203.341 8.851C203.107 8.39167 202.782 8.04067 202.366 7.798C201.95 7.55533 201.469 7.434 200.923 7.434C200.377 7.434 199.892 7.55533 199.467 7.798C199.051 8.04067 198.726 8.39167 198.492 8.851C198.258 9.30167 198.141 9.83033 198.141 10.437C198.141 11.0437 198.258 11.5767 198.492 12.036C198.726 12.4953 199.051 12.8507 199.467 13.102C199.892 13.3447 200.377 13.466 200.923 13.466ZM216.811 5.926V15H214.991V9.098L212.56 15H211.182L208.738 9.098V15H206.918V5.926H208.985L211.871 12.673L214.757 5.926H216.811ZM224.175 13.271H220.561L219.963 15H218.052L221.315 5.913H223.434L226.697 15H224.773L224.175 13.271ZM223.681 11.815L222.368 8.019L221.055 11.815H223.681ZM234.092 5.926V7.395H231.674V15H229.854V7.395H227.436V5.926H234.092ZM237.239 5.926V15H235.419V5.926H237.239ZM243.25 15.091C242.4 15.091 241.62 14.8917 240.91 14.493C240.199 14.0943 239.636 13.544 239.22 12.842C238.804 12.1313 238.596 11.3297 238.596 10.437C238.596 9.553 238.804 8.76 239.22 8.058C239.636 7.34733 240.199 6.79267 240.91 6.394C241.62 5.99533 242.4 5.796 243.25 5.796C244.108 5.796 244.888 5.99533 245.59 6.394C246.3 6.79267 246.859 7.34733 247.267 8.058C247.683 8.76 247.891 9.553 247.891 10.437C247.891 11.3297 247.683 12.1313 247.267 12.842C246.859 13.544 246.3 14.0943 245.59 14.493C244.879 14.8917 244.099 15.091 243.25 15.091ZM243.25 13.466C243.796 13.466 244.277 13.3447 244.693 13.102C245.109 12.8507 245.434 12.4953 245.668 12.036C245.902 11.5767 246.019 11.0437 246.019 10.437C246.019 9.83033 245.902 9.30167 245.668 8.851C245.434 8.39167 245.109 8.04067 244.693 7.798C244.277 7.55533 243.796 7.434 243.25 7.434C242.704 7.434 242.218 7.55533 241.794 7.798C241.378 8.04067 241.053 8.39167 240.819 8.851C240.585 9.30167 240.468 9.83033 240.468 10.437C240.468 11.0437 240.585 11.5767 240.819 12.036C241.053 12.4953 241.378 12.8507 241.794 13.102C242.218 13.3447 242.704 13.466 243.25 13.466ZM257.006 15H255.186L251.065 8.773V15H249.245V5.913H251.065L255.186 12.153V5.913H257.006V15Z" fill="white"/>
<line x1="101.5" y1="1" x2="101.5" y2="20" stroke="white"/>
<path d="M83.0104 3.01865C81.9057 3.10957 80.7287 3.42363 79.9017 3.84514C78.6177 4.50357 77.9005 5.40444 77.6287 6.70478C77.5506 7.0767 77.5564 7.79574 77.6402 8.17041C77.7241 8.54509 77.8571 8.917 77.9959 9.17046C78.3285 9.77655 79.0746 10.4295 79.9335 10.862C80.587 11.1898 81.015 11.3359 82.1862 11.6224C83.7392 12.0053 84.6559 12.2863 85.1793 12.5398C85.4656 12.6775 85.7808 12.9695 85.9023 13.201C85.9717 13.3415 85.9803 13.3828 85.9688 13.5453C85.9398 13.9283 85.6507 14.2974 85.2227 14.4958C84.8062 14.6914 83.9763 14.8098 83.3545 14.763C82.9236 14.73 82.5911 14.6445 82.2441 14.482C81.7409 14.2451 81.4748 13.931 81.3071 13.38C81.2493 13.1927 81.1741 12.7409 81.1741 12.5866C81.1741 12.5673 80.535 12.559 79.1643 12.559H77.1544V12.8015C77.1544 13.2891 77.2817 14.0247 77.4494 14.5013C77.8774 15.7217 79.1295 16.8595 80.5957 17.3609C81.3939 17.6337 82.5333 17.7935 83.7044 17.7935C85.1648 17.7935 86.4025 17.5483 87.4147 17.0606C88.2822 16.6419 88.9416 16.0799 89.3725 15.3939C89.7744 14.7492 90 13.8869 90 12.9998C90 12.1761 89.8091 11.5039 89.4101 10.9143C88.904 10.176 87.7212 9.42391 86.3649 8.98588C86.2059 8.93629 85.3875 8.72691 84.5431 8.52029C83.7016 8.31642 82.9121 8.11807 82.7935 8.0795C82.1486 7.86737 81.7264 7.52851 81.6339 7.14282C81.5905 6.9665 81.6512 6.74059 81.7987 6.53397C82.0185 6.22817 82.2817 6.11246 82.8947 6.05736C83.9445 5.96094 84.6674 6.12624 85.1128 6.55601C85.3644 6.8012 85.5119 7.15108 85.5119 7.50922V7.62769H87.5361H89.5604V7.38525C89.5575 6.90864 89.4448 6.36867 89.2394 5.8838C88.7854 4.79284 87.7906 3.91952 86.4951 3.46495C85.5523 3.13712 83.9965 2.936 83.0104 3.01865Z" fill="white"/>
<path d="M0 10.3689V17.4905H0.419317H0.838635V10.3689V3.24738H0.419317H0V10.3689Z" fill="white"/>
<path d="M3.18103 10.3689V17.4905H3.70156H4.22209V10.3689V3.24738H3.70156H3.18103V10.3689Z" fill="white"/>
<path d="M5.91966 3.26666C5.90809 3.27493 5.89941 6.48169 5.89941 10.3882V17.4905H6.62238H7.34534V10.3689V3.24738H6.64262C6.25511 3.24738 5.92833 3.25564 5.91966 3.26666Z" fill="white"/>
<path d="M8.66673 3.26666C8.65516 3.27493 8.64648 6.48169 8.64648 10.3882V17.4905H9.68755H10.7286L10.7228 10.3744L10.7142 3.26115L9.69912 3.25289C9.14099 3.25013 8.67829 3.25564 8.66673 3.26666Z" fill="white"/>
<path d="M11.6251 10.3689V17.4905H13.1H14.5748V10.3689V3.24738H13.1H11.6251V10.3689Z" fill="white"/>
<path d="M15.4136 10.3689V17.4905L18.5744 17.4877C23.719 17.485 24.1643 17.4657 25.35 17.1737C26.3447 16.9285 26.952 16.6309 27.4986 16.1268C27.9757 15.6832 28.3025 15.1846 28.5223 14.5509C28.7045 14.0275 28.7537 13.7575 28.7537 13.2892C28.7565 12.2147 28.369 11.2643 27.6461 10.5755C27.3338 10.278 27.0417 10.0769 26.6744 9.90885L26.4228 9.79314L26.5703 9.74631C27.3858 9.48183 27.9035 8.738 28.0509 7.61949C28.0972 7.26685 28.0741 6.41006 28.0076 6.05743C27.7357 4.61659 26.8942 3.77082 25.4049 3.44022C24.6039 3.26115 24.173 3.24738 19.4708 3.24738H15.4136V10.3689ZM23.3228 6.68831C23.557 6.77923 23.7941 7.00513 23.8867 7.22828C23.985 7.46245 23.9879 7.90876 23.8954 8.10436C23.7565 8.39087 23.505 8.59749 23.1377 8.71871C22.9497 8.78208 22.9295 8.78483 21.7698 8.78483H20.59V10.132V11.4819L22.059 11.4902C23.3806 11.5012 23.5397 11.5067 23.6843 11.5508C24.2944 11.7436 24.5605 12.0798 24.6386 12.7492C24.708 13.3608 24.5026 13.8044 24.0371 14.0413C23.7016 14.2121 23.6987 14.2121 21.7988 14.2121H20.0694V10.4103V6.60566L21.6108 6.61393L23.1493 6.62219L23.3228 6.68831Z" fill="white"/>
<path d="M29.3522 10.3689V17.4905H31.6512H33.9502V12.0632V6.63597H35.5696H37.1891L37.377 6.70484C37.7935 6.85361 38.0566 7.10982 38.2041 7.51755C38.2966 7.77652 38.2995 8.25588 38.207 8.50934C38.0855 8.85095 37.7935 9.13746 37.377 9.33582L37.1428 9.44602H35.8935H34.6442V10.9337V12.4214H35.7316H36.8189L37.0127 12.5068C37.2758 12.628 37.5708 12.9145 37.7298 13.2065C37.9814 13.6694 38.0769 14.1074 38.1145 14.9311C38.1549 15.8651 38.3285 16.664 38.6495 17.3858L38.6928 17.4905H40.9051H43.1174L43.0046 17.3279C42.8166 17.0497 42.6604 16.5235 42.539 15.7686C42.4927 15.4794 42.4696 15.1625 42.4522 14.5151C42.4378 13.9724 42.4089 13.5399 42.3799 13.3581C42.2903 12.8071 42.1226 12.3139 41.9375 12.055C41.6975 11.7271 41.2579 11.3469 40.7142 11.0026L40.399 10.8015L40.5928 10.7133C41.0641 10.5039 41.6483 10.0411 41.9288 9.6554C42.2353 9.23113 42.4291 8.74626 42.5448 8.10987C42.5939 7.82611 42.6026 7.70489 42.5881 7.24206C42.5766 6.85636 42.5563 6.63597 42.5159 6.4569C42.2758 5.41001 41.6801 4.62761 40.6882 4.05182C40.2168 3.77908 39.5025 3.55042 38.6928 3.41543C37.8021 3.26391 37.9236 3.26666 33.4817 3.25564L29.3522 3.24462V10.3689Z" fill="white"/>
<path d="M43.5222 10.3689V17.4905H45.72H47.9178L47.912 10.3744L47.9034 3.26115L45.7142 3.25289L43.5222 3.24738V10.3689Z" fill="white"/>
<path d="M49.2192 10.3689V17.4905H51.3881H53.557L53.5628 13.9586L53.5715 10.424L55.7403 13.9586L57.9092 17.4905H60.2458H62.5796V10.3689V3.24738H60.2372H57.8948V6.82881C57.8948 8.79861 57.8861 10.4103 57.8745 10.4103C57.8601 10.4075 56.8826 8.79585 55.6999 6.82881L53.5483 3.24738H51.3823H49.2192V10.3689Z" fill="white"/>
<path d="M63.7941 10.3689V17.4905H66.122H68.4499L68.4557 14.0606L68.4644 10.6306L70.775 14.0606L73.0827 17.4905H75.9601C78.2533 17.4905 78.8317 17.4822 78.8143 17.4547C78.8027 17.4381 77.5939 15.7438 76.1307 13.6914C74.6645 11.639 73.4702 9.95018 73.4731 9.94191C73.476 9.93089 74.598 8.42669 75.9687 6.60015C77.3366 4.77362 78.4557 3.26942 78.4557 3.26115C78.4557 3.25289 77.2469 3.24738 75.7721 3.24738H73.0885L70.7779 6.51751L68.4644 9.78763L68.4499 6.52577L68.4355 3.26115L66.1162 3.25289L63.7941 3.24738V10.3689Z" fill="white"/>
<path d="M88.6784 17.0192C88.2735 17.1928 88.2301 17.6914 88.6003 17.9339C88.6842 17.989 88.7391 18 88.9097 18C89.0803 18 89.1353 17.989 89.2192 17.9339C89.5864 17.6942 89.543 17.1956 89.1411 17.0192C88.9936 16.9531 88.8259 16.9531 88.6784 17.0192ZM89.1295 17.1405C89.3204 17.2617 89.3869 17.5234 89.2712 17.7052C89.0456 18.0579 88.4904 17.9063 88.4904 17.4903C88.4904 17.168 88.8577 16.9669 89.1295 17.1405Z" fill="white"/>
<path d="M88.7449 17.2316C88.6987 17.2454 88.6929 17.2839 88.6929 17.5071C88.6929 17.7468 88.6958 17.766 88.7507 17.766C88.797 17.766 88.8085 17.7468 88.8085 17.6724C88.8085 17.62 88.823 17.5677 88.8375 17.5594C88.8953 17.5236 88.9821 17.5787 89.0052 17.6641C89.0225 17.733 89.0457 17.755 89.1064 17.7605L89.1845 17.7688L89.1295 17.6311C89.0833 17.5126 89.0804 17.4878 89.1151 17.4602C89.1642 17.4217 89.1671 17.35 89.1209 17.2894C89.0833 17.2398 88.8432 17.204 88.7449 17.2316ZM88.9676 17.3363C89.0399 17.3859 89.0052 17.463 88.9098 17.463C88.8519 17.463 88.8375 17.4492 88.8375 17.3996C88.8375 17.2949 88.8779 17.2729 88.9676 17.3363Z" fill="white"/>
</svg>
