<svg width="135pt" height="22.5pt" version="1.0" viewBox="0 0 3113.000000 545.000000" xmlns="http://www.w3.org/2000/svg">
<g transform="translate(0 545) scale(.1 -.1)" fill="#fff">
<path d="m28705 5443c-382-33-789-147-1075-300-444-239-692-566-786-1038-27-135-25-396 4-532s75-271 123-363c115-220 373-457 670-614 226-119 374-172 779-276 537-139 854-241 1035-333 99-50 208-156 250-240 24-51 27-66 23-125-10-139-110-273-258-345-144-71-431-114-646-97-149 12-264 43-384 102-174 86-266 200-324 400-20 68-46 232-46 288 0 7-221 10-695 10h-695v-88c0-177 44-444 102-617 148-443 581-856 1088-1038 276-99 670-157 1075-157 505 0 933 89 1283 266 300 152 528 356 677 605 139 234 217 547 217 869 0 299-66 543-204 757-175 268-584 541-1053 700-55 18-338 94-630 169-291 74-564 146-605 160-223 77-369 200-401 340-15 64 6 146 57 221 76 111 167 153 379 173 363 35 613-25 767-181 87-89 138-216 138-346v-43h700 700v88c-1 173-40 369-111 545-157 396-501 713-949 878-326 119-864 192-1205 162z"/>
<path d="m0 2775v-2585h145 145v2585 2585h-145-145v-2585z"/>
<path d="m1100 2775v-2585h180 180v2585 2585h-180-180v-2585z"/>
<path d="m2047 5353c-4-3-7-1167-7-2585v-2578h250 250v2585 2585h-243c-134 0-247-3-250-7z"/>
<path d="m2997 5353c-4-3-7-1167-7-2585v-2578h360 360l-2 2583-3 2582-351 3c-193 1-353-1-357-5z"/>
<path d="m4020 2775v-2585h510 510v2585 2585h-510-510v-2585z"/>
<path d="m5330 2775v-2585l1093 1c1779 1 1933 8 2343 114 344 89 554 197 743 380 165 161 278 342 354 572 63 190 80 288 80 458 1 390-133 735-383 985-108 108-209 181-336 242l-87 42 51 17c282 96 461 366 512 772 16 128 8 439-15 567-94 523-385 830-900 950-277 65-426 70-2052 70h-1403v-2585zm2735 1336c81-33 163-115 195-196 34-85 35-247 3-318-48-104-135-179-262-223-65-23-72-24-473-24h-408v-489-490l508-3c457-4 512-6 562-22 211-70 303-192 330-435 24-222-47-383-208-469-116-62-117-62-774-62h-598v1380 1381l533-3 532-3 60-24z"/>
<path d="m10150 2775v-2585h795 795v1970 1970h560 560l65-25c144-54 235-147 286-295 32-94 33-268 1-360-42-124-143-228-287-300l-81-40h-432-432v-540-540h376 376l67-31c91-44 193-148 248-254 87-168 120-327 133-626 14-339 74-629 185-891l15-38h765 765l-39 59c-65 101-119 292-161 566-16 105-24 220-30 455-5 197-15 354-25 420-31 200-89 379-153 473-83 119-235 257-423 382l-109 73 67 32c163 76 365 244 462 384 106 154 173 330 213 561 17 103 20 147 15 315-4 140-11 220-25 285-83 380-289 664-632 873-163 99-410 182-690 231-308 55-266 54-1802 58l-1428 4v-2586z"/>
<path d="m15050 2775v-2585h760 760l-2 2583-3 2582-757 3-758 2v-2585z"/>
<path d="m17020 2775v-2585h750 750l2 1282 3 1283 750-1283 750-1282h808 807v2585 2585h-810-810v-1300c0-715-3-1300-7-1300-5 1-343 586-752 1300l-744 1300h-749-748v-2585z"/>
<path d="m22060 2775v-2585h805 805l2 1245 3 1245 799-1245 798-1245h995c793 0 993 3 987 13-4 6-422 621-928 1366-507 745-920 1358-919 1361 1 4 389 550 863 1213 473 663 860 1209 860 1212s-418 5-928 5h-928l-799-1187-800-1187-5 1184-5 1185-802 3-803 2v-2585z"/>
<path d="m30665 361c-140-63-155-244-27-332 29-20 48-24 107-24s78 4 107 24c127 87 112 268-27 332-51 24-109 24-160 0zm156-44c66-44 89-139 49-205-78-128-270-73-270 78 0 117 127 190 221 127z"/>
<path d="m30688 284c-16-5-18-19-18-100 0-87 1-94 20-94 16 0 20 7 20 34 0 19 5 38 10 41 20 13 50-7 58-38 6-25 14-33 35-35l27-3-19 50c-16 43-17 52-5 62 17 14 18 40 2 62-13 18-96 31-130 21zm77-38c25-18 13-46-20-46-20 0-25 5-25 23 0 38 14 46 45 23z"/>
</g>
</svg>
